<svg id="Layer_1" data-name="Layer 1" xmlns="http://www.w3.org/2000/svg" viewBox="0 0 300.18 300.18"><circle cx="150.09" cy="150.09" r="150.09" transform="translate(-62.17 150.09) rotate(-45)" style="fill:#3b535b"/><path d="M60.51,98.64H98.94V222.11H60.51ZM79.73,37.27A22.26,22.26,0,1,1,57.46,59.51,22.26,22.26,0,0,1,79.73,37.27" transform="translate(0)" style="fill:#fff"/><path d="M123,98.64h36.81v16.88h.52c5.12-9.71,17.64-20,36.33-20,38.86,0,46,25.56,46,58.82v67.72H204.37v-60c0-14.33-.29-32.75-20-32.75-20,0-23,15.6-23,31.69v61.09H123Z" transform="translate(0)" style="fill:#fff"/></svg>