<svg id="Layer_1" data-name="Layer 1" xmlns="http://www.w3.org/2000/svg" viewBox="0 0 300.18 300.18"><circle cx="150.09" cy="150.09" r="150.09" transform="translate(-62.17 150.09) rotate(-45)" style="fill:#3b535b"/><path d="M112.69,240.42c82,0,126.87-68,126.87-126.88,0-1.93,0-3.85-.13-5.76a90.42,90.42,0,0,0,22.24-23.09,89.3,89.3,0,0,1-25.6,7A44.85,44.85,0,0,0,255.68,67a89.65,89.65,0,0,1-28.32,10.84,44.59,44.59,0,0,0-77.12,30.48,45.8,45.8,0,0,0,1.14,10.19A126.72,126.72,0,0,1,59.47,72a44.61,44.61,0,0,0,13.81,59.52,44.24,44.24,0,0,1-20.2-5.58c0,.2,0,.38,0,.57a44.59,44.59,0,0,0,35.76,43.71,44.89,44.89,0,0,1-11.74,1.58,43.54,43.54,0,0,1-8.38-.83,44.62,44.62,0,0,0,41.64,31A89.37,89.37,0,0,1,55,221a91.25,91.25,0,0,1-10.63-.62,126.1,126.1,0,0,0,68.35,20" transform="translate(0)" style="fill:#fff"/></svg>