<?xml version="1.0" encoding="utf-8"?>
<!-- Generator: Adobe Illustrator 26.3.1, SVG Export Plug-In . SVG Version: 6.00 Build 0)  -->
<svg version="1.1" id="Layer_1" xmlns="http://www.w3.org/2000/svg" xmlns:xlink="http://www.w3.org/1999/xlink" x="0px" y="0px"
	 viewBox="0 0 347.5 328.25" style="enable-background:new 0 0 347.5 328.25;" xml:space="preserve">
<style type="text/css">
	.st0{fill:#D4A86D;}
	.st1{fill:none;stroke:#FFFFFF;stroke-width:0.5;stroke-miterlimit:10;}
	.st2{opacity:0.15;}
	.st3{opacity:0.25;}
	.st4{fill:#141515;}
	.st5{fill:#D8D8DA;}
	.st6{fill:#2B3A49;}
	.st7{fill:#FFFFFF;}
	.st8{fill:none;stroke:#D9D4C5;stroke-width:0.5;stroke-miterlimit:10;}
</style>
<ellipse class="st0" cx="177.56" cy="165.59" rx="162.47" ry="162.66"/>
<ellipse class="st1" cx="187.88" cy="167.13" rx="159.37" ry="159.56"/>
<g class="st2">
	<path d="M340.03,165.59c0-1.47-0.02-2.93-0.06-4.39L249.88,71l-16,26.14l-18.07,23.46l-45.17-35.89l-3.39,39l-12.42,2.26
		l-27.67,18.09l20.61,20.35l-22.02,0.28l7.62,7.63l1.15,87.63l66.52,66.6C279.65,315.16,340.03,247.44,340.03,165.59z"/>
	<path class="st3" d="M340.03,165.59c0-1.47-0.02-2.93-0.06-4.39L249.88,71l-16,26.14l-18.07,23.46l-45.17-35.89l-3.39,39
		l-12.42,2.26l-27.67,18.09l20.61,20.35l-22.02,0.28l7.62,7.63l1.15,87.63l66.52,66.6C279.65,315.16,340.03,247.44,340.03,165.59z"
		/>
</g>
<g>
	<path class="st4" d="M128.43,168.75c1,17.68,2,32.58,2.87,48.56c0.87,15.15,1.69,29.61,2.5,43.38c11.18,0,22.36,0,33.47,0
		c11.18,0,22.36,0,33.53,0c0.81-13.76,1.62-28.22,2.5-43.38c0.87-15.98,1.87-30.88,2.87-48.56c-12.99,0-25.91,0-38.9,0
		C154.34,168.75,141.35,168.75,128.43,168.75z"/>
	<path class="st5" d="M224.4,102.32l-17.8,18.5l-21.79-2.08c-0.87-0.44-1.81-0.63-2.87-0.63h-15.3h-13.99
		c-2.62,0-4.87,1.45-5.99,3.66l-12.99,12.12l-17.86-12.63c-3-2.21-7.18-1.45-9.37,1.64c-2.12,3.09-1.37,7.32,1.69,9.47l21.92,15.47
		c2.56,2.08,6.31,2.02,8.74-0.25l7.18-6.63v18.37h42.65v-26.58l19.92,1.96c2.06,0.19,4.06-0.63,5.43-2.02l20.04-20.84
		c2.56-2.72,2.56-7.01-0.13-9.66C231.21,99.6,226.96,99.67,224.4,102.32z M183.19,148.98v8.46h-4.18v-7.83l-4.43-7.39
		c-0.25,0.06-0.5,0.06-0.81,0.06c-3.37,0-6.18-2.78-6.18-6.25c0-3.47,2.81-6.25,6.18-6.25c3.43,0,6.18,2.78,6.18,6.25
		c0,1.64-0.62,3.16-1.62,4.23l4.56,7.64l0.31,0.51V148.98z"/>
	<path class="st6" d="M249.88,71l-1.19-0.51l-17.67,28.1c1.25,0.19,2.37,0.69,3.37,1.52L249.88,71z"/>
	<path class="st7" d="M186.06,98.47c0-10.8-8.68-19.57-19.42-19.57c-10.68,0-19.42,8.78-19.42,19.57c0,10.86,8.74,19.64,19.42,19.64
		C177.38,118.11,186.06,109.33,186.06,98.47z"/>
	<path class="st6" d="M212.98,161.23h-91.36c-0.87,0-1.56,0.69-1.56,1.58v2.46c0,0.88,0.69,1.58,1.56,1.58h91.36
		c0.87,0,1.56-0.69,1.56-1.58v-2.46C214.54,161.93,213.85,161.23,212.98,161.23z"/>
</g>
<ellipse class="st8" cx="159.62" cy="159.81" rx="159.37" ry="159.56"/>
</svg>
