<?xml version="1.0" encoding="UTF-8"?><svg id="a" xmlns="http://www.w3.org/2000/svg" viewBox="0 0 300 300"><circle cx="150" cy="150" r="150" transform="translate(-62.13 150) rotate(-45)" style="fill:#1d9ff0;"/><g><path d="M60.48,98.58h38.41v123.4H60.48V98.58Zm19.21-61.33c12.28,0,22.24,9.97,22.24,22.23s-9.96,22.26-22.24,22.26-22.26-9.98-22.26-22.26,9.95-22.23,22.26-22.23" style="fill:#fff;"/><path d="M122.96,98.58h36.79v16.87h.51c5.12-9.71,17.64-19.94,36.31-19.94,38.84,0,46,25.54,46,58.78v67.69h-38.33v-60c0-14.32-.29-32.73-19.94-32.73s-23.01,15.58-23.01,31.67v61.05h-38.34V98.58Z" style="fill:#fff;"/></g></svg>