<?xml version="1.0" encoding="utf-8"?>
<!-- Generator: Adobe Illustrator 26.3.1, SVG Export Plug-In . SVG Version: 6.00 Build 0)  -->
<svg version="1.1" id="Layer_1" xmlns="http://www.w3.org/2000/svg" xmlns:xlink="http://www.w3.org/1999/xlink" x="0px" y="0px"
	 viewBox="0 0 338.5 320.25" style="enable-background:new 0 0 338.5 320.25;" xml:space="preserve">
<style type="text/css">
	.st0{fill:#6892A7;}
	.st1{fill:none;stroke:#FFFFFF;stroke-width:0.5;stroke-miterlimit:10;}
	.st2{fill:none;stroke:#D9D4C5;stroke-width:0.5;stroke-miterlimit:10;}
	.st3{opacity:0.17;}
	.st4{fill:#D8D8DA;}
	.st5{fill:#2B3A49;}
	.st6{fill:#F6F8F5;}
	.st7{fill:#242C3C;}
</style>
<ellipse class="st0" cx="172.76" cy="161.56" rx="158.26" ry="158.69"/>
<ellipse class="st1" cx="183.01" cy="163.06" rx="155.24" ry="155.67"/>
<ellipse class="st2" cx="155.49" cy="155.92" rx="155.24" ry="155.67"/>
<g>
	<path class="st3" d="M330.46,174.79L241.1,85.18l-26.48,41.86l-14.67-1.56l-13.93,4.78L179,119.84l-1.5-20.1l-14.02,29.78
		l-18.15,14.34l-4.4,1.47l-4.03,2.21l11.73,77.57l-40.09-54.47l3.79,25.06l-30.62,41.27l82.85,83.07c2.71,0.14,5.45,0.21,8.2,0.21
		C255.71,320.25,323.76,256.24,330.46,174.79z"/>
</g>
<g>
	<g>
		<path class="st4" d="M198.2,132.37l23.45-1.81c2.65-0.19,4.74-1.81,5.72-4.11l16.56-32.04c1.72-3.37,0.43-7.48-2.83-9.23
			c-3.32-1.75-7.39-0.44-9.11,2.87l-15.02,29.17l-32.93,2.49c-0.25,0.06-0.55,0.06-0.8,0.12H179c6.71-2.49,11.51-8.98,11.51-16.64
			c0-9.79-7.82-17.7-17.48-17.7c-9.66,0-17.48,7.92-17.48,17.7c0,7.67,4.8,14.15,11.57,16.64h-11.08c-4.49,0-8.19,3.49-8.19,7.79
			v13.34h50.34V132.37z"/>
		<path class="st4" d="M127.8,209.6H115.3c7.63-2.74,13.05-10.16,13.05-18.89c0-11.1-8.86-20.07-19.82-20.07
			c-10.96,0-19.82,8.98-19.82,20.07c0,8.73,5.42,16.14,13.05,18.89H89.27c-5.11,0-9.29,3.99-9.29,8.85c0,11.84,0,8.48,0,20.26
			c19.02,0,38.1,0,57.11,0c0-11.78,0-8.41,0-20.26C137.09,213.59,132.91,209.6,127.8,209.6z"/>
		<path class="st5" d="M135.92,151.13h74.22c1.05,0,1.85-0.81,1.85-1.87v-4.55c0-1.06-0.8-1.87-1.85-1.87h-74.22
			c-0.98,0-1.85,0.81-1.85,1.87v4.55C134.08,150.32,134.94,151.13,135.92,151.13z"/>
		<path class="st6" d="M192.36,209.6H179.8c7.63-2.74,13.11-10.16,13.11-18.89c0-11.1-8.92-20.07-19.88-20.07
			c-10.95,0-19.82,8.98-19.82,20.07c0,8.73,5.48,16.14,13.11,18.89h-12.56c-5.11,0-9.29,3.99-9.29,8.85c0,11.84,0,8.48,0,20.26
			c19.08,0,38.1,0,57.11,0c0-11.78,0-8.41,0-20.26C201.59,213.59,197.47,209.6,192.36,209.6z"/>
		<path class="st4" d="M256.3,209.6h-12.56c7.63-2.74,13.11-10.16,13.11-18.89c0-11.1-8.92-20.07-19.88-20.07
			c-10.96,0-19.82,8.98-19.82,20.07c0,8.73,5.48,16.14,13.11,18.89h-12.55c-5.11,0-9.29,3.99-9.29,8.85c0,11.84,0,8.48,0,20.26
			c19.08,0,38.1,0,57.11,0c0-11.78,0-8.41,0-20.26C265.53,213.59,261.41,209.6,256.3,209.6z"/>
		<path class="st7" d="M138.32,153c0.62,13.71,1.23,26.93,1.78,39.71c0.49,12.34,1.05,24.31,1.54,35.9h0.98v-10.16
			c0-6.11,5.23-10.72,11.14-10.72h5.6c-4.99-4.05-8-10.28-8-17.02c0-12.09,9.72-21.94,21.66-21.94c12,0,21.73,9.85,21.73,21.94
			c0,6.73-3.08,12.96-8,17.02h5.6c5.85,0,11.08,4.61,11.08,10.72v10.16h1.05c0.49-11.59,0.98-23.56,1.54-35.9
			c0.55-12.78,1.11-25.99,1.72-39.71c-11.57,0-23.14,0-34.71,0C161.46,153,149.89,153,138.32,153z"/>
	</g>
</g>
</svg>
